# xmcd
#
# Track frame offsets:
#	150
#	21978
#	48867
#	67861
#	97628
#	121539
#	138828
#	157632
#	180834
#	199809
#
# Disc length: 3056 seconds
#
# Revision: 0
# Processed by: cddbd v1.5.2PL0 Copyright (c) Steve Scherf et al.
# Submitted via: audiograbber 1.83.01
#
DISCID=640bee0a
DTITLE=Marillion - Unplugged At The Walls [2018 Limited Edition] [CD 1)
DYEAR=1999
DGENRE=Progressive Rock
TTITLE0=Beautiful [live]
TTITLE1=Beyond You [live]
TTITLE2=Afraid Of Sunrise [live]
TTITLE3=Runaway [live]
TTITLE4=Now She'll Never Know [live]
TTITLE5=Alone Again In The Lap Of Luxury [live]
TTITLE6=The Space [live]
TTITLE7=Fake Plastic Trees [live]
TTITLE8=Holloway Girl [live]
TTITLE9=King [live]
EXTD=
EXTT0=
EXTT1=
EXTT2=
EXTT3=
EXTT4=
EXTT5=
EXTT6=
EXTT7=
EXTT8=
EXTT9=
PLAYORDER=
